<?xml version="1.0" standalone="no"?>
<!DOCTYPE svg PUBLIC "-//W3C//DTD SVG 20010904//EN"
 "http://www.w3.org/TR/2001/REC-SVG-20010904/DTD/svg10.dtd">
<svg version="1.0" xmlns="http://www.w3.org/2000/svg"
 width="720.000000pt" height="720.000000pt" viewBox="0 0 720.000000 720.000000"
 preserveAspectRatio="xMidYMid meet">
<metadata>
Created by potrace 1.14, written by Peter Selinger 2001-2017
</metadata>
<g transform="translate(0.000000,720.000000) scale(0.100000,-0.100000)"
fill="#000000" stroke="none">
<path d="M5157 6324 c-1 -1 -54 -4 -118 -8 -63 -3 -142 -11 -175 -17 -32 -6
-77 -12 -98 -15 -21 -2 -75 -14 -120 -25 -45 -11 -85 -22 -91 -23 -241 -61
-514 -193 -735 -355 -289 -211 -566 -514 -785 -858 l-40 -63 -95 0 c-52 -1
-312 -1 -576 -1 -571 0 -582 -2 -724 -93 -65 -42 -151 -134 -182 -197 -15 -30
-36 -70 -47 -89 -11 -19 -82 -161 -158 -315 -76 -154 -141 -281 -145 -283 -5
-2 -8 -8 -8 -14 0 -6 -42 -94 -92 -196 l-93 -186 0 -87 c0 -82 2 -89 34 -135
37 -54 82 -88 138 -103 24 -7 244 -11 606 -11 446 0 566 -3 561 -13 -20 -35
-37 -47 -51 -36 -11 9 -12 8 -7 -4 4 -12 -22 -44 -89 -111 -89 -88 -152 -175
-160 -221 -1 -11 -5 -24 -8 -30 -9 -17 -3 -128 9 -172 7 -22 27 -63 46 -90 29
-42 533 -551 611 -618 36 -30 120 -63 170 -67 20 -1 39 -6 41 -10 3 -4 14 -4
24 2 10 5 30 10 43 10 13 0 50 13 82 29 33 17 63 27 68 24 6 -3 7 -2 4 4 -6
10 33 49 46 45 4 -1 7 3 7 9 0 11 192 209 203 209 10 0 4 -115 -7 -129 -8 -11
-8 -13 1 -8 8 5 11 -114 11 -487 0 -272 3 -509 7 -527 12 -56 42 -105 87 -143
49 -42 101 -59 178 -57 51 1 92 20 526 236 259 129 476 235 482 235 6 0 12 3
14 8 2 4 43 27 92 52 145 73 246 185 298 331 22 63 22 69 25 629 1 311 2 581
3 600 0 34 5 39 97 100 54 36 135 93 181 128 45 34 88 60 94 56 6 -4 8 -3 5 3
-4 6 32 44 81 84 48 41 125 111 171 156 47 46 89 83 94 83 4 0 6 4 2 9 -3 6 0
13 8 18 7 4 35 35 62 68 28 32 59 70 70 83 94 110 257 388 319 542 21 52 76
208 81 230 2 8 4 15 5 15 1 0 3 7 5 15 1 8 10 42 18 75 8 33 19 80 23 105 4
25 8 47 9 50 4 18 15 93 20 135 3 28 8 70 11 95 6 51 6 623 0 685 -2 22 -7 72
-11 110 -3 39 -10 95 -15 125 -5 30 -12 71 -15 90 -17 105 -36 156 -74 194
-34 34 -49 41 -127 57 -110 23 -127 26 -274 44 -91 12 -641 27 -653 19z m-79
-953 c23 -7 40 -16 37 -21 -3 -6 0 -7 8 -4 23 8 91 -33 146 -88 51 -50 103
-144 116 -206 45 -218 -73 -423 -290 -503 -39 -14 -185 -24 -185 -13 0 5 -16
9 -35 10 -19 0 -61 14 -92 30 -63 31 -173 133 -173 158 0 9 -4 16 -9 16 -17 0
-52 113 -56 180 -4 85 8 150 41 215 26 50 114 157 114 139 0 -5 5 -1 11 9 14
24 83 59 154 78 67 17 148 17 213 0z"/>
<path d="M6875 4401 c-3 -5 -2 -12 3 -15 5 -3 9 1 9 9 0 17 -3 19 -12 6z"/>
<path d="M310 4006 c0 -2 7 -7 16 -10 8 -3 12 -2 9 4 -6 10 -25 14 -25 6z"/>
</g>
</svg>
